<?xml version="1.0" encoding="UTF-8" standalone="no"?>
<!-- Created with Inkscape (http://www.inkscape.org/) -->

<svg
   width="210mm"
   height="297mm"
   viewBox="0 0 210 297"
   version="1.1"
   id="svg1"
   xml:space="preserve"
   inkscape:version="1.4 (86a8ad7, 2024-10-11)"
   sodipodi:docname="favicon3.svg"
   xmlns:inkscape="http://www.inkscape.org/namespaces/inkscape"
   xmlns:sodipodi="http://sodipodi.sourceforge.net/DTD/sodipodi-0.dtd"
   xmlns="http://www.w3.org/2000/svg"
   xmlns:svg="http://www.w3.org/2000/svg"><sodipodi:namedview
     id="namedview1"
     pagecolor="#ffffff"
     bordercolor="#000000"
     borderopacity="0.25"
     inkscape:showpageshadow="2"
     inkscape:pageopacity="0.0"
     inkscape:pagecheckerboard="0"
     inkscape:deskcolor="#d1d1d1"
     inkscape:document-units="mm"
     inkscape:zoom="1.0242632"
     inkscape:cx="-11.715738"
     inkscape:cy="36.611683"
     inkscape:window-width="2880"
     inkscape:window-height="1514"
     inkscape:window-x="2869"
     inkscape:window-y="67"
     inkscape:window-maximized="1"
     inkscape:current-layer="layer1" /><defs
     id="defs1" /><rect
     style="fill:#ffffff;stroke-width:0.294867"
     id="rect3"
     width="67.583031"
     height="67.583031"
     x="-143.20294"
     y="177.17711" /><g
     inkscape:label="Layer 1"
     inkscape:groupmode="layer"
     id="layer1"><path
       style="fill:#088c5e;fill-opacity:1;stroke-width:0.349585"
       d="m -113.21807,239.37698 c -5.48751,-1.15264 -8.95904,-3.52725 -10.40086,-7.11447 l -0.29594,-0.73629 -0.78102,-0.15373 c -2.8737,-0.56562 -5.31997,-2.99586 -5.90013,-5.86149 l -0.16512,-0.81558 -0.54787,-0.20596 c -1.82902,-0.68758 -3.07147,-1.67093 -4.10922,-3.25226 -0.92565,-1.41052 -1.2486,-2.69986 -1.17557,-4.6933 0.053,-1.44671 0.22131,-2.19009 0.75968,-3.35531 l 0.3125,-0.67638 -0.38689,-0.47197 c -0.90098,-1.09916 -1.02188,-1.26955 -1.32176,-1.86308 -1.02973,-2.03798 -1.30653,-4.50373 -0.72958,-6.49902 0.70717,-2.44563 2.07569,-4.05955 4.70212,-5.54529 0.37356,-0.21132 0.43814,-0.28637 0.38944,-0.45258 -0.2657,-0.90676 -0.3434,-1.56616 -0.30143,-2.55785 0.0761,-1.79845 0.61285,-3.0734 1.85555,-4.4076 1.57466,-1.69062 3.79681,-2.63867 5.84704,-2.49455 l 0.84646,0.0595 0.31241,-0.71654 c 0.68592,-1.57319 1.88011,-2.94049 3.28801,-3.76464 2.85868,-1.6734 6.41874,-1.329 8.72913,0.84445 1.25057,1.17645 1.92502,2.52549 2.12194,4.24436 0.12734,1.11161 0.13243,49.16501 0.005,49.60847 -0.10189,0.35529 -0.47791,0.78995 -0.8528,0.9858 -0.35113,0.18344 -0.96966,0.15402 -2.20133,-0.10469 z m -1.46034,-4.97922 c 0.29056,-0.0684 0.63528,-0.19444 0.76606,-0.28013 l 0.23778,-0.1558 -0.0261,-5.10622 -0.0261,-5.10622 -0.23124,-0.4119 c -0.4699,-0.83706 -1.56131,-1.374 -2.57927,-1.26894 -0.97694,0.10083 -1.60936,0.55844 -2.27668,1.64739 -0.60681,0.99021 -2.3246,0.85172 -2.88533,-0.23261 -0.36876,-0.71313 0.0436,-2.12896 0.88589,-3.04138 0.62501,-0.67707 1.64433,-1.3634 2.43643,-1.64049 0.89325,-0.31246 2.54513,-0.35965 3.61694,-0.10332 0.44914,0.10742 0.87663,0.1953 0.94998,0.1953 0.11568,0 0.13002,-1.96947 0.10831,-14.86845 -0.025,-14.85252 -0.0253,-14.86895 -0.21878,-15.33962 -0.64186,-1.56095 -1.88026,-2.32953 -3.60749,-2.23887 -0.64939,0.0341 -0.8707,0.092 -1.4555,0.38104 -1.81814,0.89858 -2.78721,3.06238 -2.22647,4.97142 0.39844,1.35653 1.31703,2.39523 2.86831,3.24337 1.11571,0.61 1.33135,0.88062 1.33135,1.67077 0,0.56801 -0.14789,0.97165 -0.49641,1.3548 -0.54181,0.59565 -1.23285,0.6306 -2.37903,0.12031 -2.44734,-1.08959 -4.1825,-3.07459 -4.81988,-5.51386 l -0.21672,-0.82943 -0.36347,-0.0859 c -0.53057,-0.12548 -1.49502,0.0524 -2.2203,0.40942 -1.55937,0.76767 -2.36203,2.18245 -2.23854,3.94567 0.0682,0.97404 0.15304,1.13538 0.59773,1.13695 1.33264,0.005 3.42416,0.83282 4.59696,1.82008 0.80332,0.67624 1.73297,1.76959 2.04932,2.41017 0.20253,0.41011 0.23381,0.57863 0.20151,1.08582 -0.0457,0.71738 -0.23376,1.02081 -0.81768,1.31918 -0.52183,0.26664 -1.3091,0.28223 -1.7162,0.034 -0.15644,-0.0954 -0.60923,-0.55322 -1.00621,-1.01738 -1.21971,-1.42614 -2.28935,-1.96869 -3.88904,-1.9726 -1.44475,-0.004 -2.61694,0.52545 -3.65352,1.64879 -0.9497,1.02919 -1.38826,2.15112 -1.38631,3.54651 0.002,1.79155 0.5671,2.78401 2.48652,4.37069 0.79032,0.6533 0.95421,0.96614 0.91481,1.74622 -0.0293,0.58024 -0.0562,0.64304 -0.55541,1.29492 -0.85932,1.12221 -1.1831,2.053 -1.18103,3.39512 0.002,1.24147 0.4336,2.3737 1.20887,3.17059 0.48867,0.50229 1.16738,0.88973 1.30956,0.74755 0.051,-0.051 0.18792,-0.32706 0.30436,-0.61354 0.33901,-0.83413 0.78144,-1.50294 1.50785,-2.27939 0.86748,-0.92727 1.59465,-1.47078 2.66328,-1.99064 1.24193,-0.60416 2.18076,-0.64025 2.85516,-0.10977 0.58543,0.4605 0.7654,1.46984 0.39356,2.20722 -0.21926,0.43481 -0.26742,0.46642 -1.75423,1.15147 -1.27765,0.58868 -2.2506,1.7176 -2.5853,2.99973 -0.51487,1.97238 0.21023,4.09181 1.70569,4.9856 0.91781,0.54856 1.74011,0.77654 2.89183,0.80177 1.05304,0.0231 1.4009,0.11985 1.72733,0.48054 0.27603,0.30501 0.44266,0.83801 0.44266,1.41596 0,1.52561 1.21295,3.28589 2.80588,4.072 1.10518,0.5454 1.93312,0.66508 2.94832,0.42616 z m -8.68914,-21.42484 c -1.34838,-0.18718 -2.52495,-0.63381 -3.60359,-1.36793 -0.90925,-0.61884 -1.90776,-1.79647 -2.14775,-2.53304 -0.25,-0.76726 0.3306,-1.65395 1.29212,-1.97331 0.65461,-0.21743 1.01033,-0.0984 1.76127,0.5892 0.803,0.73531 1.50224,1.1659 2.36526,1.45652 1.28469,0.43262 2.61357,0.2222 3.82704,-0.60596 0.75009,-0.51192 1.05656,-0.65177 1.4283,-0.65177 0.69019,0 1.42826,0.60562 1.63044,1.33784 0.2688,0.97351 -0.7038,2.23204 -2.38592,3.08733 -1.05884,0.53838 -2.92202,0.83397 -4.16717,0.66112 z m 14.97768,26.43575 c -0.0858,-0.0858 -0.11099,-5.77621 -0.11099,-25.04946 0,-22.19819 0.0157,-24.98435 0.14226,-25.35596 0.32405,-0.95106 2.15261,-2.82513 3.88125,-3.97784 1.52922,-1.01974 3.45618,-1.82451 5.218871,-2.17959 1.24831,-0.25146 4.27465,-0.22406 5.53575,0.0501 2.10747,0.45821 3.70903,1.13195 5.47484,2.30316 1.30419,0.86504 3.32884,2.84528 4.28258,4.18866 1.19725,1.68639 2.3418,4.26063 2.83759,6.38211 0.61043,2.61201 0.63224,6.43786 0.053,9.29567 -1.2578,6.20562 -4.63916,12.35437 -10.62234,19.31591 -2.14023,2.49019 -6.53905,6.82622 -10.043011,9.89963 -1.07131,0.93968 -5.27901,4.43683 -6.05643,5.03371 -0.30257,0.2323 -0.43412,0.25311 -0.59337,0.0939 z"
       id="path2" /><g
       id="g16"><path
         style="fill:#088c5e;fill-opacity:1;stroke-width:0.349585"
         d="m -111.47887,43.178773 c -5.48751,-1.15264 -8.95904,-3.52725 -10.40086,-7.11447 l -0.29594,-0.73629 -0.78102,-0.15373 c -2.8737,-0.56562 -5.31997,-2.99586 -5.90013,-5.86149 l -0.16512,-0.81558 -0.54787,-0.20596 c -1.82902,-0.68758 -3.07147,-1.67093 -4.10922,-3.25226 -0.92565,-1.41052 -1.2486,-2.69986 -1.17557,-4.6933 0.053,-1.44671 0.22131,-2.19009 0.75968,-3.35531 l 0.3125,-0.67638 -0.38689,-0.47197 c -0.90098,-1.09916 -1.02188,-1.26955 -1.32176,-1.86308 -1.02973,-2.03798 -1.30653,-4.5037297 -0.72958,-6.4990198 0.70717,-2.44563 2.07569,-4.05955 4.70212,-5.54529 0.37356,-0.21132 0.43814,-0.28637 0.38944,-0.45258 -0.2657,-0.90675997 -0.3434,-1.56615992 -0.30143,-2.5578499 0.0761,-1.7984501 0.61285,-3.0734001 1.85555,-4.4076001 1.57466,-1.69062 3.79681,-2.63867 5.84704,-2.49455 l 0.84646,0.0595 0.31241,-0.7165398 c 0.68592,-1.5731904 1.88011,-2.9404904 3.28801,-3.7646404 2.85868,-1.6734 6.41874,-1.329 8.72913,0.84445 1.25057,1.17645 1.92502,2.5254904 2.12194,4.2443602 0.12734,1.11161 0.13243,49.1650098 0.005,49.6084698 -0.10189,0.35529 -0.47791,0.78995 -0.8528,0.9858 -0.35113,0.18344 -0.96966,0.15402 -2.20133,-0.10469 z m -1.46034,-4.97922 c 0.29056,-0.0684 0.63528,-0.19444 0.76606,-0.28013 l 0.23778,-0.1558 -0.0261,-5.10622 -0.0261,-5.10622 -0.23124,-0.4119 c -0.4699,-0.83706 -1.56131,-1.374 -2.57927,-1.26894 -0.97694,0.10083 -1.60936,0.55844 -2.27668,1.64739 -0.60681,0.99021 -2.3246,0.85172 -2.88533,-0.23261 -0.36876,-0.71313 0.0436,-2.12896 0.88589,-3.04138 0.62501,-0.67707 1.64433,-1.3634 2.43643,-1.64049 0.89325,-0.31246 2.54513,-0.35965 3.61694,-0.10332 0.44914,0.10742 0.87663,0.1953 0.94998,0.1953 0.11568,0 0.13002,-1.96947 0.10831,-14.8684498 -0.025,-14.85252 -0.0253,-14.86895 -0.21878,-15.33962 -0.64186,-1.5609498 -1.88026,-2.3295298 -3.60749,-2.2388698 -0.64939,0.0341 -0.8707,0.092 -1.4555,0.38104 -1.81814,0.8985798 -2.78721,3.0623798 -2.22647,4.9714198 0.39844,1.35653 1.31703,2.39523 2.86831,3.2433701 1.11571,0.60999998 1.33135,0.88061998 1.33135,1.67076993 0,0.56800997 -0.14789,0.97164997 -0.49641,1.35479997 -0.54181,0.59565 -1.23285,0.6306 -2.37903,0.12031 -2.44734,-1.08958997 -4.1825,-3.0745899 -4.81988,-5.51386 l -0.21672,-0.82943 -0.36347,-0.0859 c -0.53057,-0.12548 -1.49502,0.0524 -2.2203,0.40942 -1.55937,0.76767 -2.36203,2.18245 -2.23854,3.94567008 0.0682,0.97403995 0.15304,1.13537992 0.59773,1.13694992 1.33264,0.005 3.42416,0.83282 4.59696,1.82008 0.80332,0.67624 1.73297,1.76959 2.04932,2.41017 0.20253,0.41011 0.23381,0.57863 0.20151,1.08582 -0.0457,0.71738 -0.23376,1.02081 -0.81768,1.31918 -0.52183,0.26664 -1.3091,0.28223 -1.7162,0.034 -0.15644,-0.0954 -0.60923,-0.55322 -1.00621,-1.01738 -1.21971,-1.42614 -2.28935,-1.96869 -3.88904,-1.9726 -1.44475,-0.004 -2.61694,0.52545 -3.65352,1.64879 -0.9497,1.02919 -1.38826,2.15112 -1.38631,3.5465101 0.002,1.7915497 0.5671,2.7840097 2.48652,4.3706897 0.79032,0.6533 0.95421,0.96614 0.91481,1.74622 -0.0293,0.58024 -0.0562,0.64304 -0.55541,1.29492 -0.85932,1.12221 -1.1831,2.053 -1.18103,3.39512 0.002,1.24147 0.4336,2.3737 1.20887,3.17059 0.48867,0.50229 1.16738,0.88973 1.30956,0.74755 0.051,-0.051 0.18792,-0.32706 0.30436,-0.61354 0.33901,-0.83413 0.78144,-1.50294 1.50785,-2.27939 0.86748,-0.92727 1.59465,-1.47078 2.66328,-1.99064 1.24193,-0.60416 2.18076,-0.64025 2.85516,-0.10977 0.58543,0.4605 0.7654,1.46984 0.39356,2.20722 -0.21926,0.43481 -0.26742,0.46642 -1.75423,1.15147 -1.27765,0.58868 -2.2506,1.7176 -2.5853,2.99973 -0.51487,1.97238 0.21023,4.09181 1.70569,4.9856 0.91781,0.54856 1.74011,0.77654 2.89183,0.80177 1.05304,0.0231 1.4009,0.11985 1.72733,0.48054 0.27603,0.30501 0.44266,0.83801 0.44266,1.41596 0,1.52561 1.21295,3.28589 2.80588,4.072 1.10518,0.5454 1.93312,0.66508 2.94832,0.42616 z m -8.68914,-21.42484 c -1.34838,-0.18718 -2.52495,-0.63381 -3.60359,-1.36793 -0.90925,-0.61884 -1.90776,-1.79647 -2.14775,-2.53304 -0.25,-0.76726 0.3306,-1.65395 1.29212,-1.97331 0.65461,-0.21743 1.01033,-0.0984 1.76127,0.5892 0.803,0.73531 1.50224,1.1659 2.36526,1.45652 1.28469,0.43262 2.61357,0.2222 3.82704,-0.60596 0.75009,-0.51192 1.05656,-0.65177 1.4283,-0.65177 0.69019,0 1.42826,0.60562 1.63044,1.33784 0.2688,0.97351 -0.7038,2.23204 -2.38592,3.08733 -1.05884,0.53838 -2.92202,0.83397 -4.16717,0.66112 z m 14.97768,26.43575 c -0.0858,-0.0858 -0.11099,-5.77621 -0.11099,-25.04946 0,-22.1981898 0.0157,-24.9843498 0.14226,-25.3559598 0.32405,-0.95106 2.15261,-2.8251302 3.88125,-3.9778402 1.52922,-1.01974 3.456176,-1.82451 5.218867,-2.17959 1.24831,-0.25146 4.27465,-0.22406 5.53575,0.0501 2.10747,0.45821 3.70903,1.13195 5.47484,2.30316 1.30419,0.86504 3.32884,2.8452802 4.28258,4.1886602 1.19725,1.68639 2.3418,4.26063 2.83759,6.38211008 0.61043,2.61200992 0.63224,6.43785992 0.053,9.29566992 -1.2578,6.2056198 -4.63916,12.3543698 -10.62234,19.3159098 -2.14023,2.49019 -6.53905,6.82622 -10.043007,9.89963 -1.07131,0.93968 -5.27901,4.43683 -6.05643,5.03371 -0.30257,0.2323 -0.43412,0.25311 -0.59337,0.0939 z"
         id="path2-5" /><path
         id="path5"
         style="baseline-shift:baseline;display:inline;overflow:visible;vector-effect:none;fill:#ffffff;enable-background:accumulate;stop-color:#000000;stop-opacity:1"
         d="M -141.55208 -18.785417 L -141.55208 48.797538 L -73.969128 48.797538 L -73.969128 -18.785417 L -141.55208 -18.785417 z M -94.84434 -13.288595 C -94.30921 -13.283751 -93.773522 -13.262239 -93.293014 -13.225033 C -92.812505 -13.187826 -92.387174 -13.134926 -92.071899 -13.066386 C -89.964429 -12.608176 -88.362591 -11.934894 -86.596781 -10.763684 C -85.292591 -9.8986442 -83.268095 -7.9181725 -82.314355 -6.5747925 C -82.015043 -6.153195 -81.719264 -5.6761677 -81.435856 -5.1645426 C -80.86904 -4.1412924 -80.352462 -2.9799719 -79.961011 -1.8479492 C -79.765285 -1.2819379 -79.60075 -0.72312309 -79.476803 -0.19275309 C -78.866373 2.4192569 -78.844853 6.2449935 -79.424093 9.1028035 C -79.738543 10.654209 -80.185503 12.201978 -80.772847 13.759884 C -81.06652 14.538836 -81.395683 15.320323 -81.760384 16.105994 C -82.125085 16.891665 -82.525295 17.681641 -82.962895 18.477425 C -83.400495 19.27321 -83.875245 20.074703 -84.387614 20.883997 C -84.899983 21.69329 -85.450184 22.510362 -86.039193 23.33656 C -87.21721 24.988956 -88.550388 26.678552 -90.046183 28.418937 C -92.186413 30.909127 -96.585024 35.245181 -100.08898 38.318591 C -101.16029 39.258271 -105.36804 42.755513 -106.14546 43.352393 C -106.29674 43.468541 -106.40563 43.531932 -106.49634 43.546179 C -106.58705 43.560426 -106.6596 43.525532 -106.73922 43.445927 C -106.82501 43.360127 -106.84981 37.67006 -106.84981 18.39681 C -106.84981 1.7481673 -106.84091 -3.9814738 -106.78315 -5.9624268 C -106.76389 -6.6227444 -106.73934 -6.8663626 -106.7077 -6.9592651 C -106.62669 -7.1970301 -106.45149 -7.4927267 -106.20747 -7.8201945 C -105.96345 -8.1476623 -105.65072 -8.5070726 -105.29383 -8.8728434 C -104.93695 -9.2386143 -104.53624 -9.6105421 -104.11664 -9.9632161 C -103.69705 -10.31589 -103.25844 -10.649139 -102.82628 -10.937317 C -101.29706 -11.957057 -99.37017 -12.761432 -97.607479 -13.116512 C -97.295401 -13.179379 -96.872065 -13.224938 -96.393083 -13.253455 C -95.9141 -13.281971 -95.379471 -13.293445 -94.84434 -13.288595 z M -115.37797 -13.217281 C -115.16008 -13.21334 -114.94307 -13.199974 -114.72736 -13.176973 C -114.08006 -13.108001 -113.44594 -12.95327 -112.84272 -12.714986 C -112.6417 -12.635579 -112.44444 -12.546805 -112.25103 -12.448853 C -112.05747 -12.350842 -111.8682 -12.24388 -111.68362 -12.127425 C -111.49918 -12.011055 -111.3198 -11.88588 -111.14567 -11.751221 C -110.97143 -11.616486 -110.80283 -11.472642 -110.64028 -11.319722 C -110.01499 -10.731497 -109.53356 -10.100237 -109.18403 -9.4009766 C -109.00927 -9.0513463 -108.86764 -8.6848042 -108.75719 -8.2982015 C -108.64673 -7.9115988 -108.56767 -7.5047378 -108.51844 -7.0750203 C -108.48665 -6.7971178 -108.46248 -3.5856221 -108.44609 1.0826213 C -108.41332 10.419108 -108.4116 25.581918 -108.44248 34.751367 C -108.45792 39.336092 -108.48142 42.422456 -108.51327 42.533321 C -108.61516 42.888611 -108.99104 43.323457 -109.36593 43.519307 C -109.62934 43.656916 -110.04312 43.674769 -110.75345 43.565816 C -110.99013 43.529523 -111.25943 43.479082 -111.56735 43.414404 C -112.25347 43.270287 -112.908 43.107329 -113.53105 42.925028 C -113.53339 42.924345 -113.53544 42.923645 -113.53777 42.922961 C -114.15555 42.742 -114.74219 42.542008 -115.29787 42.323515 C -115.30002 42.32267 -115.30244 42.321777 -115.30459 42.320931 C -115.30474 42.320872 -115.30496 42.32099 -115.30511 42.320931 C -115.30764 42.319934 -115.30981 42.318828 -115.31234 42.31783 C -115.8666 42.099362 -116.38996 41.862092 -116.88227 41.606246 C -116.88458 41.605046 -116.8872 41.603829 -116.88951 41.602629 C -116.88964 41.602558 -116.88989 41.602699 -116.89002 41.602629 C -117.13837 41.473396 -117.37835 41.339335 -117.61091 41.200586 C -117.84359 41.061762 -118.06842 40.918467 -118.28529 40.770121 C -118.50204 40.62186 -118.71065 40.469004 -118.9116 40.311235 C -119.31351 39.995696 -119.6835 39.661222 -120.02213 39.307678 C -120.53019 38.777289 -120.96714 38.204234 -121.33265 37.588403 C -121.57628 37.177918 -121.78804 36.748512 -121.96827 36.30011 L -122.26385 35.563721 L -123.0452 35.409725 C -123.40442 35.339022 -123.75688 35.239273 -124.09992 35.113102 C -124.44296 34.986931 -124.77654 34.834409 -125.09779 34.65835 C -125.74029 34.306232 -126.33368 33.859824 -126.85531 33.341634 C -127.3799 32.82049 -127.83129 32.226402 -128.18804 31.582568 C -128.36135 31.269772 -128.51247 30.94536 -128.63814 30.611568 C -128.64107 30.603795 -128.64403 30.596097 -128.64693 30.588314 C -128.77288 30.250226 -128.87341 29.902672 -128.9451 29.548584 L -129.11047 28.73313 L -129.65824 28.526941 C -130.11564 28.354988 -130.53636 28.164965 -130.92638 27.951265 C -131.12133 27.844459 -131.30826 27.731788 -131.48861 27.612785 C -131.66908 27.493709 -131.84269 27.368532 -132.01003 27.236064 C -132.17728 27.103685 -132.33809 26.963901 -132.49372 26.816968 C -132.9606 26.376169 -133.37839 25.867425 -133.76755 25.274426 C -133.99896 24.921796 -134.1927 24.576801 -134.35201 24.226428 C -134.59097 23.700869 -134.75269 23.163223 -134.84758 22.570199 C -134.87921 22.372524 -134.90321 22.168935 -134.92045 21.957316 C -134.95492 21.534078 -134.96143 21.079533 -134.94318 20.581173 C -134.91668 19.857818 -134.86138 19.310166 -134.74526 18.797819 C -134.62914 18.285473 -134.45221 17.808432 -134.18302 17.225822 L -133.8709 16.549894 L -134.25744 16.077572 C -135.15842 14.978412 -135.27944 14.808166 -135.57932 14.214636 C -135.70804 13.959889 -135.82521 13.698611 -135.9302 13.432255 C -136.14019 12.899544 -136.3022 12.347045 -136.41493 11.788944 C -136.47129 11.509894 -136.51525 11.22934 -136.5467 10.949202 C -136.60961 10.388928 -136.62248 9.829832 -136.58339 9.2862549 C -136.54431 8.7426777 -136.45323 8.2146306 -136.30899 7.7158081 C -136.0438 6.7986969 -135.68576 5.9985428 -135.20312 5.2782308 C -134.88136 4.7980228 -134.50433 4.3533081 -134.06262 3.9330933 C -133.84185 3.7230733 -133.60474 3.5188451 -133.35052 3.319694 C -133.09618 3.1204639 -132.82419 2.925817 -132.53403 2.7347168 C -132.24387 2.5436166 -131.93526 2.3561277 -131.60695 2.1704102 C -131.42018 2.0647502 -131.31081 1.9929943 -131.254 1.9270142 C -131.1972 1.861034 -131.19296 1.8008296 -131.21731 1.7177246 C -131.28374 1.4910346 -131.33865 1.2797093 -131.38268 1.0748698 C -131.51476 0.46035118 -131.55058 -0.096491289 -131.5191 -0.84025879 C -131.443 -2.6387088 -130.9061 -3.9135417 -129.6634 -5.2477417 C -129.26983 -5.6702957 -128.83576 -6.0468808 -128.37408 -6.3711873 C -128.14317 -6.5333669 -127.90511 -6.6826298 -127.66198 -6.8181885 C -127.17584 -7.0892252 -126.66835 -7.3056415 -126.15251 -7.4620768 C -125.63633 -7.6185751 -125.11164 -7.7149559 -124.59136 -7.7457804 C -124.33131 -7.7612094 -124.07249 -7.7601781 -123.81622 -7.7421631 L -122.96976 -7.6827352 L -122.65763 -8.3994873 C -122.48615 -8.7927848 -122.28292 -9.1730449 -122.0525 -9.5353353 C -121.93729 -9.7164805 -121.81537 -9.8930845 -121.68715 -10.064502 C -121.4307 -10.407337 -121.14949 -10.729664 -120.84792 -11.025684 C -120.54645 -11.321606 -120.22461 -11.591677 -119.88726 -11.830286 C -119.71852 -11.949619 -119.54545 -12.061097 -119.36946 -12.164115 C -118.74427 -12.530086 -118.08541 -12.799556 -117.41351 -12.974402 C -116.74144 -13.149244 -116.05587 -13.229542 -115.37797 -13.217281 z M -115.87716 -9.516215 C -116.20186 -9.499165 -116.4194 -9.4760809 -116.62906 -9.4211304 C -116.83872 -9.3661799 -117.04049 -9.279363 -117.33289 -9.1348429 C -119.15103 -8.2362629 -120.11985 -6.0726101 -119.55911 -4.1635701 C -119.16067 -2.8070401 -118.24183 -1.7684973 -116.69055 -0.92035726 C -115.57484 -0.31035726 -115.35937 -0.039808203 -115.35937 0.7503418 C -115.35937 1.3183518 -115.50746 1.7221479 -115.85598 2.1052979 C -116.39779 2.7009479 -117.08846 2.7359939 -118.23464 2.2257039 C -120.68198 1.1361139 -122.41764 -0.84890138 -123.05502 -3.2881714 L -123.27155 -4.1175781 L -123.63483 -4.203361 C -124.1654 -4.328841 -125.13009 -4.1511037 -125.85537 -3.7940837 C -126.24521 -3.6021662 -126.58801 -3.3697426 -126.88063 -3.1016195 C -127.02693 -2.9675579 -127.16063 -2.8245869 -127.28164 -2.6732218 C -127.88667 -1.9163967 -128.17117 -0.95060058 -128.09399 0.15141195 C -128.07694 0.39492193 -128.05907 0.58737163 -128.03456 0.73948975 C -128.01004 0.89181069 -127.9791 1.0034832 -127.93638 1.0846883 C -127.8937 1.1658229 -127.83896 1.2163929 -127.7674 1.2469523 C -127.69583 1.2775117 -127.60727 1.287901 -127.49609 1.2882935 C -126.82977 1.2907935 -125.97368 1.4992716 -125.13758 1.8303792 C -124.71953 1.9959331 -124.30658 2.1920738 -123.92474 2.4086385 C -123.54289 2.6252033 -123.19216 2.8620392 -122.89896 3.1088542 C -122.09564 3.7850942 -121.16634 4.8779462 -120.84999 5.5185262 C -120.74872 5.7235812 -120.69048 5.8685749 -120.66137 6.025472 C -120.63226 6.1823692 -120.6323 6.3511698 -120.64845 6.6047648 C -120.69415 7.3221448 -120.88205 7.6251774 -121.46597 7.9235474 C -121.9878 8.190187 -122.77505 8.2058838 -123.18215 7.9576538 C -123.33859 7.8622538 -123.79131 7.4043049 -124.18829 6.9401449 C -124.9506 6.0488074 -125.65451 5.5024694 -126.46567 5.2172526 C -126.79013 5.1031659 -127.1318 5.0310279 -127.50126 4.9950439 C -127.68599 4.977052 -127.87749 4.9681442 -128.07745 4.9676554 C -129.5222 4.9636554 -130.6944 5.4933104 -131.73098 6.6166504 C -131.9684 6.8739479 -132.17386 7.1371323 -132.34851 7.4088501 C -132.52316 7.6805679 -132.66697 7.9609433 -132.78104 8.2527262 C -132.89512 8.5445092 -132.97959 8.8478392 -133.03529 9.165332 C -133.09099 9.4828249 -133.11794 9.8143564 -133.11746 10.163204 C -133.11546 11.954754 -132.55021 12.947317 -130.63079 14.533997 C -129.84047 15.187297 -129.67671 15.500063 -129.71611 16.280143 C -129.74541 16.860383 -129.77191 16.923275 -130.27112 17.575155 C -130.48595 17.855707 -130.66719 18.124047 -130.81837 18.390092 C -130.96956 18.656137 -131.09067 18.919671 -131.18476 19.190043 C -131.27884 19.460415 -131.34588 19.737802 -131.3894 20.031335 C -131.43292 20.324869 -131.45294 20.634766 -131.45244 20.970296 C -131.45194 21.280664 -131.42467 21.584061 -131.37183 21.877218 C -131.31898 22.170375 -131.24076 22.453231 -131.13825 22.722127 C -131.03574 22.991023 -130.90896 23.246253 -130.75946 23.483838 C -130.60996 23.721422 -130.43755 23.941423 -130.24373 24.140645 C -129.75506 24.642935 -129.07591 25.030583 -128.93373 24.888403 C -128.88273 24.837403 -128.7458 24.560967 -128.62936 24.274487 C -128.29035 23.440357 -127.84837 22.77149 -127.12196 21.99504 C -126.25448 21.06777 -125.52718 20.524324 -124.45855 20.004464 C -124.14807 19.853424 -123.85635 19.737749 -123.58315 19.657715 C -123.30996 19.57768 -123.05546 19.533479 -122.81834 19.52439 C -122.3441 19.506211 -121.94063 19.62967 -121.60343 19.89491 C -121.31072 20.12516 -121.11914 20.492809 -121.04739 20.894849 C -121.01152 21.095869 -121.00564 21.305328 -121.03189 21.510832 C -121.05814 21.716335 -121.1167 21.917665 -121.20966 22.10201 C -121.42892 22.53682 -121.47726 22.568311 -122.96407 23.253361 C -124.24172 23.842041 -125.21474 24.971048 -125.54944 26.253178 C -126.06431 28.225558 -125.33906 30.34513 -123.8436 31.23892 C -122.92579 31.78748 -122.10351 32.015192 -120.95179 32.040422 C -119.89875 32.063522 -119.55068 32.160322 -119.22425 32.521012 C -118.94822 32.826022 -118.7819 33.358997 -118.7819 33.936947 C -118.7819 35.462557 -117.5688 37.222939 -115.97587 38.009049 C -114.87069 38.554449 -114.04293 38.6743 -113.02773 38.43538 C -112.73717 38.36698 -112.39214 38.240984 -112.26136 38.155294 L -112.02365 37.999231 L -112.05001 32.893083 L -112.07585 27.786934 L -112.30736 27.375073 C -112.77726 26.538013 -113.86857 26.00084 -114.88653 26.1059 C -115.13076 26.131108 -115.35332 26.178561 -115.56039 26.252661 C -115.76745 26.326761 -115.95894 26.427533 -116.14071 26.559102 C -116.32249 26.690672 -116.4948 26.85293 -116.66316 27.050545 C -116.83153 27.24816 -116.99604 27.481107 -117.16287 27.753345 C -117.76968 28.743555 -119.48776 28.605131 -120.04849 27.520801 C -120.41725 26.807671 -120.00504 25.392063 -119.16275 24.479643 C -118.53774 23.802573 -117.51831 23.116006 -116.72621 22.838916 C -115.83296 22.526456 -114.18118 22.479233 -113.10937 22.735563 C -112.66023 22.842983 -112.2324 22.9309 -112.15905 22.9309 C -112.04304 22.9309 -112.02934 20.961537 -112.05104 8.062557 C -112.07604 -6.789963 -112.07615 -6.8064052 -112.26963 -7.2770752 C -112.91149 -8.8380252 -114.14993 -9.606875 -115.87716 -9.516215 z M -125.73031 11.039636 C -125.3189 11.013616 -124.97783 11.209682 -124.41463 11.725382 C -123.61163 12.460692 -122.91242 12.891004 -122.0494 13.181624 C -120.76471 13.614244 -119.43571 13.404137 -118.22224 12.575977 C -117.8472 12.320017 -117.58282 12.157099 -117.36596 12.058179 C -117.14911 11.959259 -116.97977 11.924337 -116.7939 11.924337 C -116.62136 11.924337 -116.44603 11.962098 -116.27662 12.030273 C -116.10722 12.098449 -115.94354 12.197218 -115.79552 12.318628 C -115.64749 12.440037 -115.5148 12.584222 -115.40639 12.743925 C -115.29799 12.903628 -115.21406 13.078668 -115.16351 13.261723 C -114.89471 14.235233 -115.86729 15.4941 -117.54941 16.34939 C -117.81412 16.483985 -118.12933 16.603186 -118.47236 16.70389 C -119.15841 16.905297 -119.95664 17.032207 -120.68927 17.055806 C -121.05559 17.067606 -121.40531 17.053544 -121.7166 17.010331 C -123.06498 16.823151 -124.24188 16.376576 -125.32052 15.642456 C -126.00245 15.178326 -126.73449 14.399874 -127.15916 13.728878 C -127.30072 13.505212 -127.40819 13.29342 -127.46819 13.109277 C -127.71819 12.342017 -127.13728 11.455631 -126.17576 11.136271 C -126.01211 11.081911 -125.86745 11.048336 -125.73031 11.039636 z " /></g></g></svg>
