<?xml version="1.0" encoding="UTF-8" standalone="no"?>
<!-- Created with Inkscape (http://www.inkscape.org/) -->

<svg
   width="210mm"
   height="297mm"
   viewBox="0 0 210 297"
   version="1.1"
   id="svg1"
   xml:space="preserve"
   inkscape:version="1.4 (86a8ad7, 2024-10-11)"
   sodipodi:docname="favicon-big.svg"
   xmlns:inkscape="http://www.inkscape.org/namespaces/inkscape"
   xmlns:sodipodi="http://sodipodi.sourceforge.net/DTD/sodipodi-0.dtd"
   xmlns="http://www.w3.org/2000/svg"
   xmlns:svg="http://www.w3.org/2000/svg"><sodipodi:namedview
     id="namedview1"
     pagecolor="#ffffff"
     bordercolor="#000000"
     borderopacity="0.25"
     inkscape:showpageshadow="2"
     inkscape:pageopacity="0.0"
     inkscape:pagecheckerboard="0"
     inkscape:deskcolor="#d1d1d1"
     inkscape:document-units="mm"
     inkscape:zoom="1.0242632"
     inkscape:cx="-11.715738"
     inkscape:cy="114.71661"
     inkscape:window-width="2880"
     inkscape:window-height="1514"
     inkscape:window-x="2869"
     inkscape:window-y="67"
     inkscape:window-maximized="1"
     inkscape:current-layer="layer1" /><defs
     id="defs1" /><rect
     style="fill:#ffffff;stroke-width:0.294867"
     id="rect3"
     width="67.583031"
     height="67.583031"
     x="-143.20294"
     y="177.17711" /><g
     inkscape:label="Layer 1"
     inkscape:groupmode="layer"
     id="layer1"><path
       style="fill:#088c5e;fill-opacity:1;stroke-width:0.349585"
       d="m -113.21807,239.37698 c -5.48751,-1.15264 -8.95904,-3.52725 -10.40086,-7.11447 l -0.29594,-0.73629 -0.78102,-0.15373 c -2.8737,-0.56562 -5.31997,-2.99586 -5.90013,-5.86149 l -0.16512,-0.81558 -0.54787,-0.20596 c -1.82902,-0.68758 -3.07147,-1.67093 -4.10922,-3.25226 -0.92565,-1.41052 -1.2486,-2.69986 -1.17557,-4.6933 0.053,-1.44671 0.22131,-2.19009 0.75968,-3.35531 l 0.3125,-0.67638 -0.38689,-0.47197 c -0.90098,-1.09916 -1.02188,-1.26955 -1.32176,-1.86308 -1.02973,-2.03798 -1.30653,-4.50373 -0.72958,-6.49902 0.70717,-2.44563 2.07569,-4.05955 4.70212,-5.54529 0.37356,-0.21132 0.43814,-0.28637 0.38944,-0.45258 -0.2657,-0.90676 -0.3434,-1.56616 -0.30143,-2.55785 0.0761,-1.79845 0.61285,-3.0734 1.85555,-4.4076 1.57466,-1.69062 3.79681,-2.63867 5.84704,-2.49455 l 0.84646,0.0595 0.31241,-0.71654 c 0.68592,-1.57319 1.88011,-2.94049 3.28801,-3.76464 2.85868,-1.6734 6.41874,-1.329 8.72913,0.84445 1.25057,1.17645 1.92502,2.52549 2.12194,4.24436 0.12734,1.11161 0.13243,49.16501 0.005,49.60847 -0.10189,0.35529 -0.47791,0.78995 -0.8528,0.9858 -0.35113,0.18344 -0.96966,0.15402 -2.20133,-0.10469 z m -1.46034,-4.97922 c 0.29056,-0.0684 0.63528,-0.19444 0.76606,-0.28013 l 0.23778,-0.1558 -0.0261,-5.10622 -0.0261,-5.10622 -0.23124,-0.4119 c -0.4699,-0.83706 -1.56131,-1.374 -2.57927,-1.26894 -0.97694,0.10083 -1.60936,0.55844 -2.27668,1.64739 -0.60681,0.99021 -2.3246,0.85172 -2.88533,-0.23261 -0.36876,-0.71313 0.0436,-2.12896 0.88589,-3.04138 0.62501,-0.67707 1.64433,-1.3634 2.43643,-1.64049 0.89325,-0.31246 2.54513,-0.35965 3.61694,-0.10332 0.44914,0.10742 0.87663,0.1953 0.94998,0.1953 0.11568,0 0.13002,-1.96947 0.10831,-14.86845 -0.025,-14.85252 -0.0253,-14.86895 -0.21878,-15.33962 -0.64186,-1.56095 -1.88026,-2.32953 -3.60749,-2.23887 -0.64939,0.0341 -0.8707,0.092 -1.4555,0.38104 -1.81814,0.89858 -2.78721,3.06238 -2.22647,4.97142 0.39844,1.35653 1.31703,2.39523 2.86831,3.24337 1.11571,0.61 1.33135,0.88062 1.33135,1.67077 0,0.56801 -0.14789,0.97165 -0.49641,1.3548 -0.54181,0.59565 -1.23285,0.6306 -2.37903,0.12031 -2.44734,-1.08959 -4.1825,-3.07459 -4.81988,-5.51386 l -0.21672,-0.82943 -0.36347,-0.0859 c -0.53057,-0.12548 -1.49502,0.0524 -2.2203,0.40942 -1.55937,0.76767 -2.36203,2.18245 -2.23854,3.94567 0.0682,0.97404 0.15304,1.13538 0.59773,1.13695 1.33264,0.005 3.42416,0.83282 4.59696,1.82008 0.80332,0.67624 1.73297,1.76959 2.04932,2.41017 0.20253,0.41011 0.23381,0.57863 0.20151,1.08582 -0.0457,0.71738 -0.23376,1.02081 -0.81768,1.31918 -0.52183,0.26664 -1.3091,0.28223 -1.7162,0.034 -0.15644,-0.0954 -0.60923,-0.55322 -1.00621,-1.01738 -1.21971,-1.42614 -2.28935,-1.96869 -3.88904,-1.9726 -1.44475,-0.004 -2.61694,0.52545 -3.65352,1.64879 -0.9497,1.02919 -1.38826,2.15112 -1.38631,3.54651 0.002,1.79155 0.5671,2.78401 2.48652,4.37069 0.79032,0.6533 0.95421,0.96614 0.91481,1.74622 -0.0293,0.58024 -0.0562,0.64304 -0.55541,1.29492 -0.85932,1.12221 -1.1831,2.053 -1.18103,3.39512 0.002,1.24147 0.4336,2.3737 1.20887,3.17059 0.48867,0.50229 1.16738,0.88973 1.30956,0.74755 0.051,-0.051 0.18792,-0.32706 0.30436,-0.61354 0.33901,-0.83413 0.78144,-1.50294 1.50785,-2.27939 0.86748,-0.92727 1.59465,-1.47078 2.66328,-1.99064 1.24193,-0.60416 2.18076,-0.64025 2.85516,-0.10977 0.58543,0.4605 0.7654,1.46984 0.39356,2.20722 -0.21926,0.43481 -0.26742,0.46642 -1.75423,1.15147 -1.27765,0.58868 -2.2506,1.7176 -2.5853,2.99973 -0.51487,1.97238 0.21023,4.09181 1.70569,4.9856 0.91781,0.54856 1.74011,0.77654 2.89183,0.80177 1.05304,0.0231 1.4009,0.11985 1.72733,0.48054 0.27603,0.30501 0.44266,0.83801 0.44266,1.41596 0,1.52561 1.21295,3.28589 2.80588,4.072 1.10518,0.5454 1.93312,0.66508 2.94832,0.42616 z m -8.68914,-21.42484 c -1.34838,-0.18718 -2.52495,-0.63381 -3.60359,-1.36793 -0.90925,-0.61884 -1.90776,-1.79647 -2.14775,-2.53304 -0.25,-0.76726 0.3306,-1.65395 1.29212,-1.97331 0.65461,-0.21743 1.01033,-0.0984 1.76127,0.5892 0.803,0.73531 1.50224,1.1659 2.36526,1.45652 1.28469,0.43262 2.61357,0.2222 3.82704,-0.60596 0.75009,-0.51192 1.05656,-0.65177 1.4283,-0.65177 0.69019,0 1.42826,0.60562 1.63044,1.33784 0.2688,0.97351 -0.7038,2.23204 -2.38592,3.08733 -1.05884,0.53838 -2.92202,0.83397 -4.16717,0.66112 z m 14.97768,26.43575 c -0.0858,-0.0858 -0.11099,-5.77621 -0.11099,-25.04946 0,-22.19819 0.0157,-24.98435 0.14226,-25.35596 0.32405,-0.95106 2.15261,-2.82513 3.88125,-3.97784 1.52922,-1.01974 3.45618,-1.82451 5.218871,-2.17959 1.24831,-0.25146 4.27465,-0.22406 5.53575,0.0501 2.10747,0.45821 3.70903,1.13195 5.47484,2.30316 1.30419,0.86504 3.32884,2.84528 4.28258,4.18866 1.19725,1.68639 2.3418,4.26063 2.83759,6.38211 0.61043,2.61201 0.63224,6.43786 0.053,9.29567 -1.2578,6.20562 -4.63916,12.35437 -10.62234,19.31591 -2.14023,2.49019 -6.53905,6.82622 -10.043011,9.89963 -1.07131,0.93968 -5.27901,4.43683 -6.05643,5.03371 -0.30257,0.2323 -0.43412,0.25311 -0.59337,0.0939 z"
       id="path2" /><g
       id="g16"
       transform="translate(-6.9745225,2.0665257)"
       inkscape:export-filename="g16.svg"
       inkscape:export-xdpi="18.040052"
       inkscape:export-ydpi="18.040052"><path
         style="fill:#088c5e;fill-opacity:1;stroke-width:0.349585"
         d="m -111.47887,43.178773 c -5.48751,-1.15264 -8.95904,-3.52725 -10.40086,-7.11447 l -0.29594,-0.73629 -0.78102,-0.15373 c -2.8737,-0.56562 -5.31997,-2.99586 -5.90013,-5.86149 l -0.16512,-0.81558 -0.54787,-0.20596 c -1.82902,-0.68758 -3.07147,-1.67093 -4.10922,-3.25226 -0.92565,-1.41052 -1.2486,-2.69986 -1.17557,-4.6933 0.053,-1.44671 0.22131,-2.19009 0.75968,-3.35531 l 0.3125,-0.67638 -0.38689,-0.47197 c -0.90098,-1.09916 -1.02188,-1.26955 -1.32176,-1.86308 -1.02973,-2.03798 -1.30653,-4.5037297 -0.72958,-6.4990198 0.70717,-2.44563 2.07569,-4.05955 4.70212,-5.54529 0.37356,-0.21132 0.43814,-0.28637 0.38944,-0.45258 -0.2657,-0.90675997 -0.3434,-1.56615992 -0.30143,-2.5578499 0.0761,-1.7984501 0.61285,-3.0734001 1.85555,-4.4076001 1.57466,-1.69062 3.79681,-2.63867 5.84704,-2.49455 l 0.84646,0.0595 0.31241,-0.7165398 c 0.68592,-1.5731904 1.88011,-2.9404904 3.28801,-3.7646404 2.85868,-1.6734 6.41874,-1.329 8.72913,0.84445 1.25057,1.17645 1.92502,2.5254904 2.12194,4.2443602 0.12734,1.11161 0.13243,49.1650098 0.005,49.6084698 -0.10189,0.35529 -0.47791,0.78995 -0.8528,0.9858 -0.35113,0.18344 -0.96966,0.15402 -2.20133,-0.10469 z m -1.46034,-4.97922 c 0.29056,-0.0684 0.63528,-0.19444 0.76606,-0.28013 l 0.23778,-0.1558 -0.0261,-5.10622 -0.0261,-5.10622 -0.23124,-0.4119 c -0.4699,-0.83706 -1.56131,-1.374 -2.57927,-1.26894 -0.97694,0.10083 -1.60936,0.55844 -2.27668,1.64739 -0.60681,0.99021 -2.3246,0.85172 -2.88533,-0.23261 -0.36876,-0.71313 0.0436,-2.12896 0.88589,-3.04138 0.62501,-0.67707 1.64433,-1.3634 2.43643,-1.64049 0.89325,-0.31246 2.54513,-0.35965 3.61694,-0.10332 0.44914,0.10742 0.87663,0.1953 0.94998,0.1953 0.11568,0 0.13002,-1.96947 0.10831,-14.8684498 -0.025,-14.85252 -0.0253,-14.86895 -0.21878,-15.33962 -0.64186,-1.5609498 -1.88026,-2.3295298 -3.60749,-2.2388698 -0.64939,0.0341 -0.8707,0.092 -1.4555,0.38104 -1.81814,0.8985798 -2.78721,3.0623798 -2.22647,4.9714198 0.39844,1.35653 1.31703,2.39523 2.86831,3.2433701 1.11571,0.60999998 1.33135,0.88061998 1.33135,1.67076993 0,0.56800997 -0.14789,0.97164997 -0.49641,1.35479997 -0.54181,0.59565 -1.23285,0.6306 -2.37903,0.12031 -2.44734,-1.08958997 -4.1825,-3.0745899 -4.81988,-5.51386 l -0.21672,-0.82943 -0.36347,-0.0859 c -0.53057,-0.12548 -1.49502,0.0524 -2.2203,0.40942 -1.55937,0.76767 -2.36203,2.18245 -2.23854,3.94567008 0.0682,0.97403995 0.15304,1.13537992 0.59773,1.13694992 1.33264,0.005 3.42416,0.83282 4.59696,1.82008 0.80332,0.67624 1.73297,1.76959 2.04932,2.41017 0.20253,0.41011 0.23381,0.57863 0.20151,1.08582 -0.0457,0.71738 -0.23376,1.02081 -0.81768,1.31918 -0.52183,0.26664 -1.3091,0.28223 -1.7162,0.034 -0.15644,-0.0954 -0.60923,-0.55322 -1.00621,-1.01738 -1.21971,-1.42614 -2.28935,-1.96869 -3.88904,-1.9726 -1.44475,-0.004 -2.61694,0.52545 -3.65352,1.64879 -0.9497,1.02919 -1.38826,2.15112 -1.38631,3.5465101 0.002,1.7915497 0.5671,2.7840097 2.48652,4.3706897 0.79032,0.6533 0.95421,0.96614 0.91481,1.74622 -0.0293,0.58024 -0.0562,0.64304 -0.55541,1.29492 -0.85932,1.12221 -1.1831,2.053 -1.18103,3.39512 0.002,1.24147 0.4336,2.3737 1.20887,3.17059 0.48867,0.50229 1.16738,0.88973 1.30956,0.74755 0.051,-0.051 0.18792,-0.32706 0.30436,-0.61354 0.33901,-0.83413 0.78144,-1.50294 1.50785,-2.27939 0.86748,-0.92727 1.59465,-1.47078 2.66328,-1.99064 1.24193,-0.60416 2.18076,-0.64025 2.85516,-0.10977 0.58543,0.4605 0.7654,1.46984 0.39356,2.20722 -0.21926,0.43481 -0.26742,0.46642 -1.75423,1.15147 -1.27765,0.58868 -2.2506,1.7176 -2.5853,2.99973 -0.51487,1.97238 0.21023,4.09181 1.70569,4.9856 0.91781,0.54856 1.74011,0.77654 2.89183,0.80177 1.05304,0.0231 1.4009,0.11985 1.72733,0.48054 0.27603,0.30501 0.44266,0.83801 0.44266,1.41596 0,1.52561 1.21295,3.28589 2.80588,4.072 1.10518,0.5454 1.93312,0.66508 2.94832,0.42616 z m -8.68914,-21.42484 c -1.34838,-0.18718 -2.52495,-0.63381 -3.60359,-1.36793 -0.90925,-0.61884 -1.90776,-1.79647 -2.14775,-2.53304 -0.25,-0.76726 0.3306,-1.65395 1.29212,-1.97331 0.65461,-0.21743 1.01033,-0.0984 1.76127,0.5892 0.803,0.73531 1.50224,1.1659 2.36526,1.45652 1.28469,0.43262 2.61357,0.2222 3.82704,-0.60596 0.75009,-0.51192 1.05656,-0.65177 1.4283,-0.65177 0.69019,0 1.42826,0.60562 1.63044,1.33784 0.2688,0.97351 -0.7038,2.23204 -2.38592,3.08733 -1.05884,0.53838 -2.92202,0.83397 -4.16717,0.66112 z m 14.97768,26.43575 c -0.0858,-0.0858 -0.11099,-5.77621 -0.11099,-25.04946 0,-22.1981898 0.0157,-24.9843498 0.14226,-25.3559598 0.32405,-0.95106 2.15261,-2.8251302 3.88125,-3.9778402 1.52922,-1.01974 3.456176,-1.82451 5.218867,-2.17959 1.24831,-0.25146 4.27465,-0.22406 5.53575,0.0501 2.10747,0.45821 3.70903,1.13195 5.47484,2.30316 1.30419,0.86504 3.32884,2.8452802 4.28258,4.1886602 1.19725,1.68639 2.3418,4.26063 2.83759,6.38211008 0.61043,2.61200992 0.63224,6.43785992 0.053,9.29566992 -1.2578,6.2056198 -4.63916,12.3543698 -10.62234,19.3159098 -2.14023,2.49019 -6.53905,6.82622 -10.043007,9.89963 -1.07131,0.93968 -5.27901,4.43683 -6.05643,5.03371 -0.30257,0.2323 -0.43412,0.25311 -0.59337,0.0939 z"
         id="path2-5" /><path
         id="path5"
         style="baseline-shift:baseline;display:inline;overflow:visible;vector-effect:none;fill:#ffffff;enable-background:accumulate;stop-color:#000000;stop-opacity:1"
         d="m -141.55208,-18.785417 v 67.582955 h 67.582952 v -67.582955 z m 46.70774,5.496822 c 0.53513,0.0048 1.070818,0.02636 1.551326,0.06356 0.480509,0.03721 0.90584,0.09011 1.221115,0.158647 2.10747,0.45821 3.709308,1.131492 5.475118,2.302702 1.30419,0.8650398 3.328686,2.8455115 4.282426,4.1888915 0.299312,0.4215975 0.595091,0.8986248 0.878499,1.4102499 0.566816,1.0232502 1.083394,2.1845707 1.474845,3.3165934 0.195726,0.5660113 0.360261,1.12482611 0.484208,1.65519611 0.61043,2.61200999 0.63195,6.43774659 0.05271,9.29555659 -0.31445,1.5514055 -0.76141,3.0991745 -1.348754,4.6570805 -0.293673,0.778952 -0.622836,1.560439 -0.987537,2.34611 -0.364701,0.785671 -0.764911,1.575647 -1.202511,2.371431 -0.4376,0.795785 -0.91235,1.597278 -1.424719,2.406572 -0.512369,0.809293 -1.06257,1.626365 -1.651579,2.452563 -1.178017,1.652396 -2.511195,3.341992 -4.00699,5.082377 -2.14023,2.49019 -6.538841,6.826244 -10.042797,9.899654 -1.07131,0.93968 -5.27906,4.436922 -6.05648,5.033802 -0.15128,0.116148 -0.26017,0.179539 -0.35088,0.193786 -0.0907,0.01425 -0.16326,-0.02065 -0.24288,-0.100252 -0.0858,-0.0858 -0.11059,-5.775867 -0.11059,-25.049117 0,-16.6486427 0.009,-22.3782838 0.0667,-24.3592368 0.0193,-0.6603176 0.0438,-0.9039358 0.0755,-0.9968383 0.081,-0.237765 0.25621,-0.5334616 0.50023,-0.8609294 0.24402,-0.3274678 0.55675,-0.6868781 0.91364,-1.0526489 0.35688,-0.3657709 0.75759,-0.7376987 1.17719,-1.0903727 0.41959,-0.3526739 0.8582,-0.6859229 1.29036,-0.9741009 1.52922,-1.01974 3.45611,-1.824115 5.218801,-2.179195 0.312078,-0.06287 0.735414,-0.108426 1.214396,-0.136943 0.478983,-0.02852 1.013612,-0.03999 1.548743,-0.03514 z m -20.53363,0.07131 c 0.21789,0.0039 0.4349,0.01731 0.65061,0.04031 0.6473,0.06897 1.28142,0.223703 1.88464,0.461987 0.20102,0.07941 0.39828,0.168181 0.59169,0.266133 0.19356,0.09801 0.38283,0.204973 0.56741,0.321428 0.18444,0.11637 0.36382,0.241545 0.53795,0.376204 0.17424,0.134735 0.34284,0.278579 0.50539,0.431499 0.62529,0.588225 1.10672,1.219485 1.45625,1.9187454 0.17476,0.3496303 0.31639,0.7161724 0.42684,1.1027751 0.11046,0.3866027 0.18952,0.7934637 0.23875,1.2231812 0.0318,0.2779025 0.056,3.4893982 0.0724,8.1576416 0.0328,9.3364867 0.0345,24.4992967 0.004,33.6687457 -0.0154,4.584725 -0.0389,7.671089 -0.0708,7.781954 -0.10189,0.35529 -0.47777,0.790136 -0.85266,0.985986 -0.26341,0.137609 -0.67719,0.155462 -1.38752,0.04651 -0.23668,-0.03629 -0.50598,-0.08673 -0.8139,-0.151412 -0.68612,-0.144117 -1.34065,-0.307075 -1.9637,-0.489376 -0.002,-6.83e-4 -0.004,-0.0014 -0.007,-0.0021 -0.61778,-0.180961 -1.20442,-0.380953 -1.7601,-0.599446 -0.002,-8.45e-4 -0.005,-0.0017 -0.007,-0.0026 -1.5e-4,-5.9e-5 -3.7e-4,5.9e-5 -5.2e-4,0 -0.003,-9.97e-4 -0.005,-0.0021 -0.007,-0.0031 -0.55426,-0.218468 -1.07762,-0.455738 -1.56993,-0.711584 -0.002,-0.0012 -0.005,-0.0024 -0.007,-0.0036 -1.3e-4,-7.1e-5 -3.8e-4,7e-5 -5.1e-4,0 -0.24835,-0.129233 -0.48833,-0.263294 -0.72089,-0.402043 -0.23268,-0.138824 -0.45751,-0.282119 -0.67438,-0.430465 -0.21675,-0.148261 -0.42536,-0.301117 -0.62631,-0.458886 -0.40191,-0.315539 -0.7719,-0.650013 -1.11053,-1.003557 -0.50806,-0.530389 -0.94501,-1.103444 -1.31052,-1.719275 -0.24363,-0.410485 -0.45539,-0.839891 -0.63562,-1.288293 l -0.29558,-0.736389 -0.78135,-0.153996 c -0.35922,-0.0707 -0.71168,-0.170452 -1.05472,-0.296623 -0.34304,-0.126171 -0.67662,-0.278693 -0.99787,-0.454752 -0.6425,-0.352118 -1.23589,-0.798526 -1.75752,-1.316716 -0.52459,-0.521144 -0.97598,-1.115232 -1.33273,-1.759066 -0.17331,-0.312796 -0.32443,-0.637208 -0.4501,-0.971 -0.003,-0.0078 -0.006,-0.01547 -0.009,-0.02325 -0.12595,-0.338088 -0.22648,-0.685642 -0.29817,-1.03973 l -0.16537,-0.815454 -0.54777,-0.206189 c -0.4574,-0.171953 -0.87812,-0.361976 -1.26814,-0.575676 -0.19495,-0.106806 -0.38188,-0.219477 -0.56223,-0.33848 -0.18047,-0.119076 -0.35408,-0.244253 -0.52142,-0.376721 -0.16725,-0.132379 -0.32806,-0.272163 -0.48369,-0.419096 -0.46688,-0.440799 -0.88467,-0.949543 -1.27383,-1.542542 -0.23141,-0.35263 -0.42515,-0.697625 -0.58446,-1.047998 -0.23896,-0.525559 -0.40068,-1.063205 -0.49557,-1.656229 -0.0316,-0.197675 -0.0556,-0.401264 -0.0729,-0.612883 -0.0345,-0.423238 -0.041,-0.877783 -0.0227,-1.376143 0.0265,-0.723355 0.0818,-1.271007 0.19792,-1.783354 0.11612,-0.512346 0.29305,-0.989387 0.56224,-1.571997 l 0.31212,-0.675928 -0.38654,-0.472322 c -0.90098,-1.09916 -1.022,-1.269406 -1.32188,-1.862936 -0.12872,-0.254747 -0.24589,-0.516025 -0.35088,-0.782381 -0.20999,-0.532711 -0.372,-1.08521 -0.48473,-1.643311 -0.0564,-0.27905 -0.10032,-0.559604 -0.13177,-0.839742 -0.0629,-0.560274 -0.0758,-1.11937 -0.0367,-1.6629471 0.0391,-0.5435772 0.13016,-1.0716243 0.2744,-1.5704468 0.26519,-0.9171112 0.62323,-1.7172653 1.10587,-2.4375773 0.32176,-0.480208 0.69879,-0.9249227 1.1405,-1.3451375 0.22077,-0.21002 0.45788,-0.4142482 0.7121,-0.6133993 0.25434,-0.1992301 0.52633,-0.393877 0.81649,-0.5849772 0.29016,-0.1911002 0.59877,-0.3785891 0.92708,-0.5643066 0.18677,-0.10566 0.29614,-0.1774159 0.35295,-0.243396 0.0568,-0.06598 0.061,-0.1261846 0.0367,-0.2092896 -0.0664,-0.22669 -0.12134,-0.4380153 -0.16537,-0.6428548 -0.13208,-0.61451862 -0.1679,-1.17136109 -0.13642,-1.91512859 0.0761,-1.79845001 0.613,-3.07328291 1.8557,-4.40748291 0.39357,-0.422554 0.82764,-0.7991391 1.28932,-1.1234456 0.23091,-0.1621796 0.46897,-0.3114425 0.7121,-0.4470012 0.48614,-0.2710367 0.99363,-0.487453 1.50947,-0.6438883 0.51618,-0.1564983 1.04087,-0.2528791 1.56115,-0.2837036 0.26005,-0.015429 0.51887,-0.014398 0.77514,0.00362 l 0.84646,0.059428 0.31213,-0.7167521 c 0.17148,-0.3932975 0.37471,-0.7735576 0.60513,-1.135848 0.11521,-0.1811452 0.23713,-0.3577492 0.36535,-0.5291665 0.25645,-0.342835 0.53766,-0.665162 0.83923,-0.961182 0.30147,-0.295922 0.62331,-0.565993 0.96066,-0.804602 0.16874,-0.119333 0.34181,-0.230811 0.5178,-0.333829 0.62519,-0.365971 1.28405,-0.635441 1.95595,-0.810287 0.67207,-0.174842 1.35764,-0.25514 2.03554,-0.242879 z m -0.49919,3.701066 c -0.3247,0.01705 -0.54224,0.040134 -0.7519,0.095085 -0.20966,0.05495 -0.41143,0.1417674 -0.70383,0.2862875 -1.81814,0.89858 -2.78696,3.0622328 -2.22622,4.9712728 0.39844,1.35653 1.31728,2.3950728 2.86856,3.24321284 1.11571,0.61 1.33118,0.88054906 1.33118,1.67069906 0,0.56801 -0.14809,0.9718061 -0.49661,1.3549561 -0.54181,0.59565 -1.23248,0.630696 -2.37866,0.120406 -2.44734,-1.08959 -4.183,-3.07460528 -4.82038,-5.5138753 l -0.21653,-0.8294067 -0.36328,-0.085783 c -0.53057,-0.12548 -1.49526,0.052257 -2.22054,0.4092773 -0.38984,0.1919175 -0.73264,0.4243411 -1.02526,0.6924642 -0.1463,0.1340616 -0.28,0.2770326 -0.40101,0.4283977 -0.60503,0.7568251 -0.88953,1.72262122 -0.81235,2.82463375 0.017,0.24350998 0.0349,0.43595968 0.0594,0.5880778 0.0245,0.15232094 0.0555,0.26399345 0.0982,0.34519855 0.0427,0.081135 0.0974,0.1317046 0.16898,0.162264 0.0716,0.030559 0.16013,0.040949 0.27131,0.041341 0.66632,0.0025 1.52241,0.2109781 2.35851,0.5420857 0.41805,0.1655539 0.831,0.3616946 1.21284,0.5782593 0.38185,0.2165648 0.73258,0.4534007 1.02578,0.7002157 0.80332,0.67624 1.73262,1.769092 2.04897,2.409672 0.10127,0.205055 0.15951,0.3500487 0.18862,0.5069458 0.0291,0.1568972 0.0291,0.3256978 0.0129,0.5792928 -0.0457,0.71738 -0.2336,1.0204126 -0.81752,1.3187826 -0.52183,0.2666396 -1.30908,0.2823364 -1.71618,0.034106 -0.15644,-0.0954 -0.60916,-0.5533489 -1.00614,-1.0175089 -0.76231,-0.8913375 -1.46622,-1.4376755 -2.27738,-1.7228923 -0.32446,-0.1140867 -0.66613,-0.1862247 -1.03559,-0.2222087 -0.18473,-0.017992 -0.37623,-0.0269 -0.57619,-0.027388 -1.44475,-0.004 -2.61695,0.525655 -3.65353,1.648995 -0.23742,0.2572975 -0.44288,0.5204819 -0.61753,0.7921997 -0.17465,0.2717178 -0.31846,0.5520932 -0.43253,0.8438761 -0.11408,0.291783 -0.19855,0.595113 -0.25425,0.9126058 -0.0557,0.3174929 -0.0827,0.6490244 -0.0822,0.9978718 0.002,1.79155 0.56725,2.784113 2.48667,4.370793 0.79032,0.6533 0.95408,0.966066 0.91468,1.746146 -0.0293,0.58024 -0.0558,0.643132 -0.55501,1.295012 -0.21483,0.280552 -0.39607,0.548892 -0.54725,0.814937 -0.15119,0.266045 -0.2723,0.529579 -0.36639,0.799951 -0.0941,0.270372 -0.16112,0.547759 -0.20464,0.841292 -0.0435,0.293534 -0.0635,0.603431 -0.063,0.938961 5e-4,0.310368 0.0278,0.613765 0.0806,0.906922 0.0528,0.293157 0.13107,0.576013 0.23358,0.844909 0.10251,0.268896 0.22929,0.524126 0.37879,0.761711 0.1495,0.237584 0.32191,0.457585 0.51573,0.656807 0.48867,0.50229 1.16782,0.889938 1.31,0.747758 0.051,-0.051 0.18793,-0.327436 0.30437,-0.613916 0.33901,-0.83413 0.78099,-1.502997 1.5074,-2.279447 0.86748,-0.92727 1.59478,-1.470716 2.66341,-1.990576 0.31048,-0.15104 0.6022,-0.266715 0.8754,-0.346749 0.27319,-0.08003 0.52769,-0.124236 0.76481,-0.133325 0.47424,-0.01818 0.87771,0.10528 1.21491,0.37052 0.29271,0.23025 0.48429,0.597899 0.55604,0.999939 0.0359,0.20102 0.0417,0.410479 0.0155,0.615983 -0.0262,0.205503 -0.0848,0.406833 -0.17777,0.591178 -0.21926,0.43481 -0.2676,0.466301 -1.75441,1.151351 -1.27765,0.58868 -2.25067,1.717687 -2.58537,2.999817 -0.51487,1.97238 0.21038,4.091952 1.70584,4.985742 0.91781,0.54856 1.74009,0.776272 2.89181,0.801502 1.05304,0.0231 1.40111,0.1199 1.72754,0.48059 0.27603,0.30501 0.44235,0.837985 0.44235,1.415935 0,1.52561 1.2131,3.285992 2.80603,4.072102 1.10518,0.5454 1.93294,0.665251 2.94814,0.426331 0.29056,-0.0684 0.63559,-0.194396 0.76637,-0.280086 l 0.23771,-0.156063 -0.0264,-5.106148 -0.0258,-5.106149 -0.23151,-0.411861 c -0.4699,-0.83706 -1.56121,-1.374233 -2.57917,-1.269173 -0.24423,0.02521 -0.46679,0.07266 -0.67386,0.146761 -0.20706,0.0741 -0.39855,0.174872 -0.58032,0.306441 -0.18178,0.13157 -0.35409,0.293828 -0.52245,0.491443 -0.16837,0.197615 -0.33288,0.430562 -0.49971,0.7028 -0.60681,0.99021 -2.32489,0.851786 -2.88562,-0.232544 -0.36876,-0.71313 0.0435,-2.128738 0.88574,-3.041158 0.62501,-0.67707 1.64444,-1.363637 2.43654,-1.640727 0.89325,-0.31246 2.54503,-0.359683 3.61684,-0.103353 0.44914,0.10742 0.87697,0.195337 0.95032,0.195337 0.11601,0 0.12971,-1.969363 0.10801,-14.8683428 -0.025,-14.85252 -0.0251,-14.8689622 -0.21859,-15.3396322 -0.64186,-1.56095 -1.8803,-2.3297998 -3.60753,-2.2391398 z m -9.85315,20.555851 c 0.41141,-0.02602 0.75248,0.170046 1.31568,0.685746 0.803,0.73531 1.50221,1.165622 2.36523,1.456242 1.28469,0.43262 2.61369,0.222513 3.82716,-0.605647 0.37504,-0.25596 0.63942,-0.418878 0.85628,-0.517798 0.21685,-0.09892 0.38619,-0.133842 0.57206,-0.133842 0.17254,0 0.34787,0.03776 0.51728,0.105936 0.1694,0.06818 0.33308,0.166945 0.4811,0.288355 0.14803,0.121409 0.28072,0.265594 0.38913,0.425297 0.1084,0.159703 0.19233,0.334743 0.24288,0.517798 0.2688,0.97351 -0.70378,2.232377 -2.3859,3.087667 -0.26471,0.134595 -0.57992,0.253796 -0.92295,0.3545 -0.68605,0.201407 -1.48428,0.328317 -2.21691,0.351916 -0.36632,0.0118 -0.71604,-0.0023 -1.02733,-0.04547 -1.34838,-0.18718 -2.52528,-0.633755 -3.60392,-1.367875 -0.68193,-0.46413 -1.41397,-1.242582 -1.83864,-1.913578 -0.14156,-0.223666 -0.24903,-0.435458 -0.30903,-0.619601 -0.25,-0.76726 0.33091,-1.653646 1.29243,-1.973006 0.16365,-0.05436 0.30831,-0.08793 0.44545,-0.09664 z" /></g></g></svg>
